                          HD DESI ROCKERS RELEASES 
===========================================================================

Movie name   : The.Incredibles.Bluray720p.x264.Hindi.DjVikas


Format                           : Matroska
File size                        : 1.75 GiB
Duration                         : 1h 55mn
Overall bit rate                 : 2 180 Kbps
                      : 

Video
ID                               : 1
Format                           : AVC
Format/Info                      : Advanced Video Codec
Format profile                   : High@L4.1
Format settings, CABAC           : Yes
Codec ID                         : V_MPEG4/ISO/AVC
Duration                         : 1h 55mn
Bit rate                         : 1 880 Kbps
Nominal bit rate                 : 2 002 Kbps
Width                            : 1 280 pixels
Height                           : 528 pixels
Display aspect ratio             : 2.35:1
Original display aspect ratio    : 2.35:1
Frame rate                       : 23.976 fps
Original frame rate              : 25.000 fps
Resolution                       : 8 bits
Stream size                      : 1.51 GiB (86%)

___________________________________________________________________________

Audio
ID                               : 2
Format                           : AC-3
Format/Info                      : Audio Coding 3
Codec ID                         : A_AC3
Duration                         : 1h 55mn
Bit rate mode                    : Constant
Bit rate                         : 256 Kbps
Channel(s)                       : 2 channels
Channel positions                : L R
Sampling rate                    : 44.1 KHz
Stream size                      : 211 MiB (12%)
Title                            : Hindi - By - Dj Vikas

___________________________________________________________________________

screenshots 
 
http://img198.imageshack.us/img198/2503/theincrediblesbluray720.jpg 
http://img180.imageshack.us/img180/2503/theincrediblesbluray720.jpg 
http://img20.imageshack.us/img20/2503/theincrediblesbluray720.jpg 
http://img408.imageshack.us/img408/2503/theincrediblesbluray720.jpg 
http://img41.imageshack.us/img41/2503/theincrediblesbluray720.jpg 
http://img52.imageshack.us/img52/2503/theincrediblesbluray720.jpg 
http://img99.imageshack.us/img99/2503/theincrediblesbluray720.jpg 
http://img84.imageshack.us/img84/2503/theincrediblesbluray720.jpg 
http://img189.imageshack.us/img189/2503/theincrediblesbluray720.jpg 
http://img267.imageshack.us/img267/2503/theincrediblesbluray720.jpg 
http://img401.imageshack.us/img401/2503/theincrediblesbluray720.jpg 
http://img23.imageshack.us/img23/2503/theincrediblesbluray720.jpg 
http://img69.imageshack.us/img69/2503/theincrediblesbluray720.jpg 
http://img687.imageshack.us/img687/2503/theincrediblesbluray720.jpg 
http://img63.imageshack.us/img63/2503/theincrediblesbluray720.jpg
